<?xml version="1.0" encoding="utf-8"?>
<!-- Generator: Adobe Illustrator 18.0.0, SVG Export Plug-In . SVG Version: 6.00 Build 0)  -->
<!DOCTYPE svg PUBLIC "-//W3C//DTD SVG 1.1//EN" "http://www.w3.org/Graphics/SVG/1.1/DTD/svg11.dtd">
<svg version="1.1" id="Layer_1" xmlns="http://www.w3.org/2000/svg" xmlns:xlink="http://www.w3.org/1999/xlink" x="0px" y="0px"
	 viewBox="0 0 256 256" enable-background="new 0 0 256 256" xml:space="preserve">
<g>
	<circle fill="#F3756F" cx="128" cy="128" r="127"/>
	<g>
		<path fill="#E7E8E9" d="M70.9,51.1v22.2c0.4,0.4,0.8,0.8,1.3,1.1c2.7,2,6.3,2.7,9.6,2.5c0,0.6,0,1.3,0,1.9c-0.7,0-1.4,0.3-2,0.7
			c1.2,0.3,2,1.4,2,2.7c0,1.5-1.2,2.8-2.8,2.8c-0.3,0-0.6-0.1-0.8-0.1c0.2,0.8,0.5,1.6,0.8,2.4c-1.7-0.8-3.5,0.5-4.9,1.7
			c-1.1,1-2.3,2.1-2.6,3.6c-0.3,1.5,1,3.3,2.4,2.9c0.4-0.9,1.3-1.4,2.2-1.6c0-0.1,0-0.2,0-0.3c0-1.5,1.2-2.8,2.8-2.8
			c1.5,0,2.8,1.2,2.8,2.8c0,1.5-1.2,2.8-2.8,2.8c-0.6,0-1.1-0.2-1.5-0.5c-0.2,0.6-0.4,1.1-0.8,1.6c-1.8,0-3.5,0.1-5.3,0.1
			c0.7,0.2,1.2,0.7,1.3,1.4c-0.7,0.4-1.5,0.9-1.9,1.6v2c0.6,0.6,1.7,0.5,2.6,0.7c1.1,0.1,2,0.7,2.8,1.5c0.1-1.5,1.3-2.7,2.8-2.7
			c1.5,0,2.8,1.2,2.8,2.8c0,1.5-1.2,2.8-2.8,2.8c-0.4,0-0.9-0.1-1.2-0.3c0.1,0.3,0.2,0.6,0.2,0.9c0.3,1.8,0.1,3.6-0.3,5.4
			c0.4-0.2,0.8-0.3,1.3-0.3c1.5,0,2.8,1.2,2.8,2.8c0,1.5-1.2,2.8-2.8,2.8c-1.5,0-2.8-1.2-2.8-2.8c0-0.3,0.1-0.5,0.1-0.8
			c-1.9,0.1-4.1,0.6-4.3,2.4c-0.3,2.2,2.7,4.1,1.9,6.2c1.1-0.1,2.3,0,3.4,0.4c-0.2,0.5-0.3,0.9-0.5,1.4c0.5-0.7,1.3-1.1,2.2-1.1
			c1.5,0,2.8,1.2,2.8,2.8c0,1.5-1.2,2.8-2.8,2.8c-1.5,0-2.8-1.2-2.8-2.8c0-0.1,0-0.1,0-0.2c-0.7,1.9-1.6,3.8-2.5,5.6
			c-1,0.1-1.9,0.4-2.8,0.7v14.9c1,0.4,2.3,0.3,3.4,0.3c0.7,0,1.4,0.4,2,0.9c0.2-1.3,1.4-2.3,2.7-2.3c1.5,0,2.8,1.2,2.8,2.8
			c0,1.5-1.2,2.8-2.8,2.8c-0.9,0-1.7-0.4-2.2-1.1c0,0,0,0.1-0.1,0.1c-1.3,0.6-2.7,1.3-4,1.9c0.6,2.2,1.6,4.9,3.9,5
			c0,0.3,0,0.7-0.1,1c0.5-0.8,1.4-1.3,2.4-1.3c1.5,0,2.8,1.2,2.8,2.8c0,1.5-1.2,2.8-2.8,2.8c-1.1,0-2-0.6-2.5-1.6
			c-0.1,1.1-0.1,2.1-0.2,3.2c0,0.5-0.1,1.1-0.4,1.5c-0.6,0.9-1.9,0.9-2.7,1.6c-0.5,0.5-0.7,1.2-0.9,1.9c-0.5,1.7-0.9,3.4-1.4,5.1
			c-0.1,0.2-0.1,0.4-0.2,0.7v4.6c0.7,1.4,2.3,2.3,3.7,1.7c1,0.6,0.8,2.1,0,2.9c-0.8,0.8-2,1-3.1,1.1c-0.2,0-0.4,0-0.6,0.1v18h114.3
			V51.1H70.9z M79,198.1c-1.5,0-2.8-1.2-2.8-2.8c0-1.5,1.2-2.8,2.8-2.8c1.5,0,2.8,1.2,2.8,2.8C81.8,196.9,80.6,198.1,79,198.1z
			 M79,186.8c-1.5,0-2.8-1.2-2.8-2.8c0-1.5,1.2-2.8,2.8-2.8c1.5,0,2.8,1.2,2.8,2.8C81.8,185.6,80.6,186.8,79,186.8z M79,175.5
			c-1.5,0-2.8-1.2-2.8-2.8c0-1.5,1.2-2.8,2.8-2.8c1.5,0,2.8,1.2,2.8,2.8C81.8,174.3,80.6,175.5,79,175.5z M79,141.6
			c-1.5,0-2.8-1.2-2.8-2.8c0-1.5,1.2-2.8,2.8-2.8c1.5,0,2.8,1.2,2.8,2.8C81.8,140.3,80.6,141.6,79,141.6z M79,73.7
			c-1.5,0-2.8-1.2-2.8-2.8c0-1.5,1.2-2.8,2.8-2.8c1.5,0,2.8,1.2,2.8,2.8C81.8,72.5,80.6,73.7,79,73.7z M79,62.4
			c-1.5,0-2.8-1.2-2.8-2.8c0-1.5,1.2-2.8,2.8-2.8c1.5,0,2.8,1.2,2.8,2.8C81.8,61.1,80.6,62.4,79,62.4z"/>
		<g>
			<rect x="91" y="69.2" fill="#527F99" width="85.7" height="1.3"/>
			<rect x="91" y="76.3" fill="#BCBFC2" width="85.7" height="0.6"/>
			<rect x="91" y="83.1" fill="#BCBFC2" width="85.7" height="0.6"/>
			<rect x="91" y="89.9" fill="#BCBFC2" width="85.7" height="0.6"/>
			<rect x="91" y="96.7" fill="#BCBFC2" width="85.7" height="0.6"/>
			<rect x="91" y="103.4" fill="#BCBFC2" width="85.7" height="0.6"/>
			<rect x="91" y="110.2" fill="#BCBFC2" width="85.7" height="0.6"/>
			<rect x="91" y="117" fill="#BCBFC2" width="85.7" height="0.6"/>
			<rect x="91" y="123.8" fill="#BCBFC2" width="85.7" height="0.6"/>
			<rect x="91" y="130.6" fill="#BCBFC2" width="85.7" height="0.6"/>
			<rect x="91" y="137.3" fill="#BCBFC2" width="85.7" height="0.6"/>
			<rect x="91" y="144.1" fill="#BCBFC2" width="85.7" height="0.6"/>
			<rect x="91" y="150.9" fill="#BCBFC2" width="85.7" height="0.6"/>
			<rect x="91" y="157.7" fill="#BCBFC2" width="85.7" height="0.6"/>
			<rect x="91" y="164.5" fill="#BCBFC2" width="85.7" height="0.6"/>
			<rect x="91" y="171.2" fill="#BCBFC2" width="85.7" height="0.6"/>
			<rect x="91" y="178" fill="#BCBFC2" width="85.7" height="0.6"/>
			<rect x="91" y="184.8" fill="#BCBFC2" width="85.7" height="0.6"/>
			<rect x="91" y="191.6" fill="#BCBFC2" width="85.7" height="0.6"/>
		</g>
	</g>
</g>
</svg>
