<?xml version="1.0" encoding="utf-8"?>
<!-- Generator: Adobe Illustrator 18.0.0, SVG Export Plug-In . SVG Version: 6.00 Build 0)  -->
<!DOCTYPE svg PUBLIC "-//W3C//DTD SVG 1.1//EN" "http://www.w3.org/Graphics/SVG/1.1/DTD/svg11.dtd">
<svg version="1.1" id="Layer_1" xmlns="http://www.w3.org/2000/svg" xmlns:xlink="http://www.w3.org/1999/xlink" x="0px" y="0px"
	 viewBox="0 0 256 256" enable-background="new 0 0 256 256" xml:space="preserve">
<g>
	<circle fill="#36505F" cx="128" cy="128" r="127"/>
	<g>
		<polygon fill="#A48156" points="86.8,97.6 139.8,166.4 116.5,174.2 89.4,161.3 		"/>
		<path fill="#CEA973" d="M86.8,97.6l29.7,76.6H36.1C36.1,174.2,82.1,94.3,86.8,97.6z"/>
		<path fill="#A48156" d="M170.2,96.2c0-0.1,0-0.1,0.1-0.2c0.3-0.8,1.1-1.5,1.9-2l-16.7-21.7l9,23.3
			C166.3,95.2,168.4,95.4,170.2,96.2z"/>
		<path fill="#A48156" d="M173,95.2c-0.7,0.3-1.3,0.8-1.4,1.3c-0.1,0.2-0.1,0.4,0,0.6c0.2,0.3,0.1,0.7-0.1,0.9
			c-0.2,0.2-0.6,0.3-0.9,0.1c-1.7-1.1-3.7-1.4-5.7-1.1l30,77.1l31-10.3L173,95.2z"/>
		<path fill="#E5C283" d="M139.8,100.9l0.5-0.2c0.7-0.3,1.5-0.6,2.3-0.7c1.3-0.2,2.6,0.2,3.7,0.5l6,1.6c0.9,0.2,1.7,0.5,2.6,0.3
			c1.4-0.2,2.3-1.4,3.4-2.7c0.4-0.5,0.9-1.1,1.4-1.6c1.3-1.3,3-2.2,4.8-2.5l-9-23.3c-2.3-1.6-12.2,12-23.7,29.8
			C134.4,102.3,137.2,101.9,139.8,100.9z"/>
		<path fill="#E5C283" d="M160.6,99.2c-0.4,0.4-0.9,0.9-1.3,1.4c-1.2,1.4-2.4,2.9-4.2,3.2c-0.3,0-0.5,0.1-0.8,0.1
			c-0.8,0-1.6-0.2-2.4-0.4l-6-1.6c-1-0.3-2.1-0.6-3.1-0.4c-0.7,0.1-1.3,0.3-2,0.6l-0.5,0.2c-3.1,1.1-6.3,1.6-9.5,1.2
			c-19.3,30-42.8,70.7-42.8,70.7h107L165,97C163.3,97.3,161.8,98,160.6,99.2z"/>
		<path fill="#8B683E" d="M170.2,96c0,0.1,0,0.1-0.1,0.2c-1.8-0.8-3.8-1-5.8-0.6L165,97c2-0.3,4,0,5.7,1.1c0.3,0.2,0.7,0.1,0.9-0.1
			c0.2-0.2,0.3-0.6,0.1-0.9c-0.1-0.2-0.1-0.4,0-0.6c0.2-0.5,0.8-1,1.4-1.3l-0.9-1.2C171.3,94.5,170.5,95.2,170.2,96z"/>
		<path fill="#A77D4B" d="M140.3,102.3l0.5-0.2c0.7-0.3,1.3-0.5,2-0.6c1-0.1,2.1,0.2,3.1,0.4l6,1.6c0.7,0.2,1.5,0.4,2.4,0.4
			c0.3,0,0.5,0,0.8-0.1c1.9-0.3,3.1-1.8,4.2-3.2c0.4-0.5,0.8-1,1.3-1.4c1.2-1.2,2.7-1.9,4.3-2.2l-0.6-1.4c-1.8,0.4-3.5,1.2-4.8,2.5
			c-0.5,0.5-0.9,1-1.4,1.6c-1,1.3-2,2.5-3.4,2.7c-0.8,0.1-1.7-0.1-2.6-0.3l-6-1.6c-1.1-0.3-2.4-0.6-3.7-0.5
			c-0.8,0.1-1.6,0.4-2.3,0.7l-0.5,0.2c-2.6,1-5.4,1.4-8.2,1.2c-0.3,0.5-0.6,0.9-0.9,1.4C134,103.8,137.3,103.4,140.3,102.3z"/>
	</g>
</g>
</svg>
