<?xml version="1.0" encoding="utf-8"?>
<!-- Generator: Adobe Illustrator 18.0.0, SVG Export Plug-In . SVG Version: 6.00 Build 0)  -->
<!DOCTYPE svg PUBLIC "-//W3C//DTD SVG 1.1//EN" "http://www.w3.org/Graphics/SVG/1.1/DTD/svg11.dtd">
<svg version="1.1" id="Layer_1" xmlns="http://www.w3.org/2000/svg" xmlns:xlink="http://www.w3.org/1999/xlink" x="0px" y="0px"
	 viewBox="0 0 256 256" enable-background="new 0 0 256 256" xml:space="preserve">
<g>
	<circle fill="#37505F" cx="128" cy="128" r="127"/>
	<g>
		<path fill="#D2AA35" d="M156.9,53.3l-31.4,74.3h-12l-8.3,24.8c-2.4-3.4-5.7-5.9-9.6-7.1c-1.7-0.5-3.6-0.8-5.4-0.8
			c-10.7,0-21.1,9.2-25.2,22.3c-4.8,15.6,1,31.3,13,35c1.7,0.5,3.6,0.8,5.4,0.8c10.7,0,21.1-9.2,25.2-22.3l14.9-35.8l27.9-4.1
			l15-49.2C166.4,91.2,170.9,67.8,156.9,53.3z M101,178c-3,9.6-10.4,16.6-17.5,16.6c-1,0-2.1-0.2-3-0.5c-7.7-2.4-11.2-13.8-7.7-25
			c3-9.6,10.4-16.6,17.5-16.6c1,0,2.1,0.2,3,0.5C100.9,155.4,104.5,166.8,101,178z"/>
		<path fill="#F2CD56" d="M89.6,91.2l15,49.2l27.9,4.1l14.9,35.8c4.1,13.1,14.4,22.3,25.2,22.3c1.8,0,3.7-0.3,5.4-0.8
			c12-3.7,17.8-19.4,13-35c-4.1-13.1-14.4-22.3-25.2-22.3c-1.8,0-3.7,0.3-5.4,0.8c-3.9,1.2-7.2,3.7-9.6,7.1l-8.3-24.8h-12L99.1,53.3
			C85.1,67.8,89.6,91.2,89.6,91.2z M162.7,153c1-0.3,2-0.5,3-0.5c7.2,0,14.5,7,17.5,16.6c3.5,11.2-0.1,22.6-7.7,25
			c-1,0.3-2,0.5-3,0.5c-7.2,0-14.5-7-17.5-16.6C151.5,166.8,155.1,155.4,162.7,153z"/>
		<circle fill="#BF4028" cx="128" cy="135.1" r="4.2"/>
	</g>
</g>
</svg>
